<?xml version="1.0" encoding="UTF-8"?>
<svg version="1.1" xmlns="http://www.w3.org/2000/svg" width="1375" height="768">
<path d="M0 0 C453.75 0 907.5 0 1375 0 C1375 253.44 1375 506.88 1375 768 C921.25 768 467.5 768 0 768 C0 514.56 0 261.12 0 0 Z " fill="#F7F7F7" transform="translate(0,0)"/>
<path d="M0 0 C39.93 0 79.86 0 121 0 C121 42.15068493 121 42.15068493 117 59 C116.67854004 60.35520752 116.67854004 60.35520752 116.35058594 61.73779297 C107.08465808 99.40169913 87.50798398 130.77994143 54.26171875 151.3359375 C40.13613332 159.79337425 24.12244684 166.56922021 8 170 C7.15421387 170.18046875 6.30842773 170.3609375 5.43701172 170.546875 C-8.47266073 173.37127085 -22.15899563 174.37725365 -36.3125 174.375 C-37.04931 174.37681274 -37.78612 174.37862549 -38.54525757 174.38049316 C-47.84834985 174.37789559 -56.83795882 173.74157732 -66 172 C-66.80961182 171.84885742 -67.61922363 171.69771484 -68.45336914 171.54199219 C-99.84706645 165.38650027 -126.75039179 152.01060087 -150 130 C-150.88429688 129.18015625 -151.76859375 128.3603125 -152.6796875 127.515625 C-171.56011804 109.43747904 -185.78725352 84.42981321 -192 59 C-192 58.01 -192 57.02 -192 56 C-188.71832916 57.23975823 -185.77353466 58.62357459 -182.796875 60.4765625 C-181.59297119 61.22305054 -181.59297119 61.22305054 -180.36474609 61.98461914 C-179.50187988 62.52594482 -178.63901367 63.06727051 -177.75 63.625 C-176.83686035 64.19404053 -175.9237207 64.76308105 -174.98291016 65.34936523 C-165.63763997 71.19074978 -156.36331069 77.14322867 -147.08984375 83.09765625 C-138.75619589 88.44564275 -130.37831619 93.72232051 -122 99 C-121.67 90.09 -121.34 81.18 -121 72 C-118.61910608 74.38089392 -116.65513925 76.65310944 -114.625 79.3125 C-100.40379089 97.9169585 -80.62593304 109.38032683 -58 115 C-57.05898438 115.24363281 -56.11796875 115.48726563 -55.1484375 115.73828125 C-24.12000161 122.31058683 6.8721633 113.24909525 32.93359375 96.51953125 C36.03172361 94.47956689 39.08650661 92.37886739 42.13867188 90.27099609 C45.34626647 88.08071049 48.61043554 85.97903785 51.875 83.875 C52.55771973 83.43397949 53.24043945 82.99295898 53.94384766 82.53857422 C58.39564276 79.66706136 62.85704456 76.81067242 67.3203125 73.95703125 C68.42391113 73.25143066 69.52750977 72.54583008 70.66455078 71.81884766 C72.83676507 70.43080559 75.00958623 69.04371262 77.18310547 67.65771484 C83.16676134 63.8365966 89.11203297 59.9671293 95 56 C91.61400535 53.22064675 88.15993721 50.7062289 84.4921875 48.3125 C83.43241699 47.61970947 82.37264648 46.92691895 81.28076172 46.21313477 C80.14562427 45.47524399 79.01036776 44.73753635 77.875 44 C76.70195545 43.23564209 75.52894142 42.47123734 74.35595703 41.70678711 C64.62991924 35.37659715 54.84024714 29.15097212 45 23 C43.42576474 22.01434928 41.85154607 21.02867208 40.27734375 20.04296875 C36.520338 17.69192198 32.76093817 15.34475042 29 13 C29 17.95 29 22.9 29 28 C30.65 28.66 32.3 29.32 34 30 C35.44591639 30.84422326 36.86805592 31.73028747 38.265625 32.65234375 C39.06581055 33.17650879 39.86599609 33.70067383 40.69042969 34.24072266 C41.95741699 35.08062744 41.95741699 35.08062744 43.25 35.9375 C45.0308625 37.11126522 46.8121201 38.28443118 48.59375 39.45703125 C49.4909375 40.04822754 50.388125 40.63942383 51.3125 41.24853516 C53.88917906 42.92777712 56.48503379 44.57029967 59.09375 46.19921875 C60.27275879 46.9408728 60.27275879 46.9408728 61.47558594 47.69750977 C62.96854664 48.63453652 64.46647896 49.56369758 65.96972656 50.48413086 C67.69887283 51.57731507 69.35832899 52.77937933 71 54 C71 54.99 71 55.98 71 57 C68.61844734 58.77073993 66.27362787 60.32934386 63.75 61.875 C62.19885578 62.85098587 60.64809095 63.82757489 59.09765625 64.8046875 C58.27281738 65.31999023 57.44797852 65.83529297 56.59814453 66.36621094 C52.09714409 69.1965713 47.64420893 72.10060232 43.1875 75 C42.33446289 75.55155762 41.48142578 76.10311523 40.60253906 76.67138672 C39.79913086 77.1923291 38.99572266 77.71327148 38.16796875 78.25 C37.10485474 78.93835938 37.10485474 78.93835938 36.02026367 79.640625 C33.94453063 81.00216405 33.94453063 81.00216405 31.86450195 82.671875 C30 84 30 84 28 84 C28 73.77 28 63.54 28 53 C11.17 53 -5.66 53 -23 53 C-22.26522589 49.32612947 -21.70865938 47.02025125 -20.18994141 43.77978516 C-19.81930573 42.98190582 -19.44867004 42.18402649 -19.06680298 41.36196899 C-18.66577362 40.51290985 -18.26474426 39.66385071 -17.8515625 38.7890625 C-17.43836761 37.90270111 -17.02517273 37.01633972 -16.59945679 36.1031189 C-15.27974186 33.27466064 -13.952648 30.44974201 -12.625 27.625 C-11.30600732 24.80671374 -9.98855136 21.9877163 -8.67196655 19.16830444 C-7.85340733 17.41670011 -7.0332013 15.6658641 -6.21109009 13.91592407 C-5.83415009 13.11174042 -5.45721008 12.30755676 -5.06884766 11.47900391 C-4.74099274 10.78126862 -4.41313782 10.08353333 -4.0753479 9.36465454 C-2.66607739 6.26571521 -1.34103161 3.12907376 0 0 Z " fill="#212121" transform="translate(747,296)"/>
<path d="M0 0 C1.34707283 -0.00855011 1.34707283 -0.00855011 2.72135925 -0.01727295 C4.6181828 -0.02667551 6.51502233 -0.03323794 8.41186523 -0.03710938 C11.24689173 -0.04671882 14.08116169 -0.07774759 16.91601562 -0.109375 C32.36970747 -0.19993237 47.6065429 1.14838011 62.41796875 5.828125 C63.23168945 6.08045898 64.04541016 6.33279297 64.88378906 6.59277344 C92.75213527 15.58290737 115.04974466 31.54911431 135.48046875 52.203125 C134.12618414 55.30725261 132.70912622 57.11788224 130.10546875 59.265625 C126.48326564 62.32803309 122.9639911 65.48474834 119.48046875 68.703125 C115.53265041 72.33872464 111.55386287 75.92930241 107.4921875 79.4375 C104.16547837 82.35725248 100.92693969 85.37515348 97.6796875 88.3828125 C95.48046875 90.203125 95.48046875 90.203125 92.48046875 91.203125 C91.70445312 90.44128906 90.9284375 89.67945313 90.12890625 88.89453125 C82.47518209 81.52250249 74.66867369 75.53100773 65.48046875 70.203125 C64.08828125 69.37361328 64.08828125 69.37361328 62.66796875 68.52734375 C40.7470849 56.47708516 10.43884446 52.92879046 -13.70507812 59.29223633 C-29.40817124 63.9415912 -42.98558188 71.75462052 -55.51953125 82.203125 C-56.12410156 82.66074219 -56.72867188 83.11835938 -57.3515625 83.58984375 C-62.16340712 87.34240642 -65.62550551 92.01286997 -69.23242188 96.88549805 C-70.30911107 98.33898634 -71.41195356 99.77303427 -72.51953125 101.203125 C-72.84953125 101.203125 -73.17953125 101.203125 -73.51953125 101.203125 C-73.51953125 92.623125 -73.51953125 84.043125 -73.51953125 75.203125 C-83.11300301 81.01963938 -92.65206681 86.87940678 -102.05053711 93.00512695 C-107.34382042 96.45255361 -112.67271047 99.83939992 -118.01953125 103.203125 C-126.90253184 108.79385664 -135.72119949 114.48026644 -144.51953125 120.203125 C-147.77069667 110.44962874 -137.73057013 93.55390053 -133.47094727 84.77758789 C-126.61057798 71.1190893 -117.81146754 59.45245071 -107.51953125 48.203125 C-106.75898437 47.37039062 -105.9984375 46.53765625 -105.21484375 45.6796875 C-78.97287945 18.28423026 -37.88881472 0.19176732 0 0 Z " fill="#292929" transform="translate(699.51953125,152.796875)"/>
<path d="M0 0 C1.32068209 7.91344966 2.4287328 16.22050593 0 24 C-4.54140167 29.74309143 -11.65422207 32.57322444 -18.14453125 35.60839844 C-22.42629483 37.69509922 -26.33692528 40.26393068 -30.3125 42.875 C-31.8469596 43.85210428 -33.38347757 44.82598243 -34.921875 45.796875 C-35.72173828 46.30283203 -36.52160156 46.80878906 -37.34570312 47.33007812 C-40.37495947 49.23590165 -43.41331139 51.12668732 -46.453125 53.015625 C-48.09800903 54.03873779 -48.09800903 54.03873779 -49.77612305 55.08251953 C-51.93504526 56.42428784 -54.0953247 57.76387528 -56.25708008 59.10107422 C-57.72504028 60.01397217 -57.72504028 60.01397217 -59.22265625 60.9453125 C-60.09672119 61.48687988 -60.97078613 62.02844727 -61.87133789 62.58642578 C-64.0915616 63.95963976 -64.0915616 63.95963976 -66 66 C-65.32759277 66.41137207 -64.65518555 66.82274414 -63.96240234 67.24658203 C-48.54678999 76.6854063 -33.20747774 86.22793898 -18 96 C-17.14857422 96.5465625 -16.29714844 97.093125 -15.41992188 97.65625 C-13.00764553 99.2060677 -10.59703911 100.75843072 -8.1875 102.3125 C-7.46941162 102.77503174 -6.75132324 103.23756348 -6.01147461 103.71411133 C-1.11928072 106.88071928 -1.11928072 106.88071928 0 108 C0.08726223 109.78071246 0.10699041 111.5648314 0.09765625 113.34765625 C0.09282227 114.96704102 0.09282227 114.96704102 0.08789062 116.61914062 C0.07532227 118.32360352 0.07532227 118.32360352 0.0625 120.0625 C0.05798828 121.20267578 0.05347656 122.34285156 0.04882812 123.51757812 C0.03699747 126.34510351 0.0205141 129.1725264 0 132 C-3.67847042 130.57912832 -6.68945423 128.9967685 -9.9375 126.75 C-15.68526144 122.85249714 -21.51097608 119.09517619 -27.375 115.375 C-28.31762695 114.77671387 -29.26025391 114.17842773 -30.23144531 113.56201172 C-32.17932028 112.32617508 -34.12740206 111.09066435 -36.07568359 109.85546875 C-40.78363929 106.86828698 -45.48502903 103.87080512 -50.1875 100.875 C-56.15855951 97.07179412 -62.1365724 93.28040993 -68.13085938 89.51391602 C-71.22552258 87.56664963 -74.31396715 85.60971005 -77.40039062 83.64941406 C-79.28542118 82.45338979 -81.17239477 81.26042614 -83.06054688 80.06933594 C-86.27659148 78.03626007 -89.48280833 75.98841392 -92.6875 73.9375 C-93.71093506 73.29369385 -94.73437012 72.6498877 -95.78881836 71.98657227 C-96.72862549 71.38127686 -97.66843262 70.77598145 -98.63671875 70.15234375 C-99.47936279 69.61601318 -100.32200684 69.07968262 -101.19018555 68.52709961 C-101.78742432 68.02315674 -102.38466309 67.51921387 -103 67 C-103 66.01 -103 65.02 -103 64 C-101.28198242 62.56469727 -101.28198242 62.56469727 -98.85546875 61.06640625 C-97.96061768 60.50614746 -97.0657666 59.94588867 -96.14379883 59.36865234 C-94.68043091 58.47460693 -94.68043091 58.47460693 -93.1875 57.5625 C-91.69029419 56.62978271 -91.69029419 56.62978271 -90.1628418 55.67822266 C-88.10295123 54.39518362 -86.0405036 53.11624127 -83.97558594 51.84130859 C-79.73470581 49.21702915 -75.52429147 46.54559899 -71.3125 43.875 C-69.75679272 42.89278189 -68.20080341 41.91101034 -66.64453125 40.9296875 C-61.92840236 37.95515835 -57.21405863 34.97780871 -52.5 32 C-47.78594137 29.02219129 -43.07159764 26.04484165 -38.35546875 23.0703125 C-37.58581787 22.5846582 -36.81616699 22.09900391 -36.02319336 21.59863281 C-34.47353723 20.62092565 -32.92357264 19.64370723 -31.37329102 18.66699219 C-26.89675513 15.84302443 -22.43495509 12.99753745 -17.984375 10.1328125 C-16.97802002 9.48683105 -15.97166504 8.84084961 -14.93481445 8.17529297 C-12.96477559 6.90985952 -10.99708693 5.64075836 -9.03198242 4.36767578 C-8.14357666 3.79774902 -7.2551709 3.22782227 -6.33984375 2.640625 C-5.54956787 2.13047852 -4.75929199 1.62033203 -3.94506836 1.09472656 C-2 0 -2 0 0 0 Z " fill="#2A2A2A" transform="translate(617,246)"/>
<path d="M0 0 C5.61 0 11.22 0 17 0 C14.71125087 7.45210466 11.64825561 14.33683343 8.3125 21.375 C7.15514383 23.84063547 5.99881407 26.30672962 4.84375 28.7734375 C4.53971756 29.4215741 4.23568512 30.06971069 3.92243958 30.73748779 C-0.37186797 39.90538307 -4.55500336 49.1245061 -8.75228882 58.33709717 C-9.43460901 59.83450256 -10.1171862 61.33179088 -10.80004883 62.82894897 C-11.42272176 64.19421746 -12.04475261 65.55977905 -12.66601562 66.9256897 C-14.05953412 69.98118749 -15.49762905 72.9952581 -17 76 C-22.61 76 -28.22 76 -34 76 C-31.70040163 68.50267928 -28.60658505 61.57939805 -25.25 54.5 C-24.08982593 52.02925276 -22.93077786 49.55801021 -21.7734375 47.0859375 C-21.4714444 46.44187958 -21.16945129 45.79782166 -20.85830688 45.13424683 C-16.79174366 36.44528982 -12.8476689 27.70021904 -8.89562988 18.95874023 C-8.2665779 17.56746112 -7.63710442 16.17637248 -7.00717163 14.78549194 C-6.17417951 12.94615691 -5.34265113 11.10615918 -4.51123047 9.26611328 C-3.068652 6.14837261 -1.53631634 3.07263268 0 0 Z " fill="#272727" transform="translate(717,296)"/>
<path d="M0 0 C0.66 0.33 1.32 0.66 2 1 C1.855625 1.53882813 1.71125 2.07765625 1.5625 2.6328125 C-1.80748656 17.5637252 -0.32109758 33.85455989 1 49 C-4.69827008 46.26585247 -9.97888095 43.2299147 -15.25 39.75 C-15.9821875 39.26982422 -16.714375 38.78964844 -17.46875 38.29492188 C-18.9457932 37.3252895 -20.42172609 36.35396346 -21.89648438 35.38085938 C-23.83361335 34.10922503 -25.78101937 32.85588254 -27.734375 31.609375 C-28.81203125 30.91328125 -29.8896875 30.2171875 -31 29.5 C-31.94875 28.8915625 -32.8975 28.283125 -33.875 27.65625 C-36 26 -36 26 -37 23 C-35.92105469 22.34515625 -34.84210937 21.6903125 -33.73046875 21.015625 C-32.21600334 20.09398411 -30.70169283 19.17208865 -29.1875 18.25 C-28.38957031 17.76499023 -27.59164062 17.27998047 -26.76953125 16.78027344 C-22.3613973 14.09041911 -17.98405272 11.36188412 -13.64453125 8.5625 C-12.78384033 8.00916992 -11.92314941 7.45583984 -11.03637695 6.88574219 C-9.35996579 5.80460302 -7.68782385 4.71681199 -6.02026367 3.62207031 C-5.26076416 3.13319336 -4.50126465 2.64431641 -3.71875 2.140625 C-3.04779297 1.70266602 -2.37683594 1.26470703 -1.68554688 0.81347656 C-0.85120117 0.41080566 -0.85120117 0.41080566 0 0 Z " fill="#2A2A2A" transform="translate(611,287)"/>
<path d="M0 0 C0.66 0.33 1.32 0.66 2 1 C-4.6 7.6 -11.2 14.2 -18 21 C-18.66 20.67 -19.32 20.34 -20 20 C-7.23404255 5.85106383 -7.23404255 5.85106383 0 0 Z " fill="#343434" transform="translate(604,190)"/>
<path d="M0 0 C0.99 0.99 1.98 1.98 3 3 C2.67 3.66 2.34 4.32 2 5 C1.84733388 6.73868744 1.75067404 8.48247501 1.68359375 10.2265625 C1.64169922 11.2578125 1.59980469 12.2890625 1.55664062 13.3515625 C1.51732422 14.43179687 1.47800781 15.51203125 1.4375 16.625 C1.39431641 17.71296875 1.35113281 18.8009375 1.30664062 19.921875 C1.2003547 22.6144517 1.09831943 25.30712253 1 28 C0.67 28 0.34 28 0 28 C0 18.76 0 9.52 0 0 Z " fill="#3D3D3D" transform="translate(626,368)"/>
<path d="M0 0 C0 3.51716303 -0.82445585 4.37121748 -3 7 C-4.32 6.01 -5.64 5.02 -7 4 C-4.69 2.68 -2.38 1.36 0 0 Z " fill="#353535" transform="translate(579,269)"/>
<path d="M0 0 C2.475 0.99 2.475 0.99 5 2 C4.67 2.66 4.34 3.32 4 4 C3.34 4 2.68 4 2 4 C1.67 4.99 1.34 5.98 1 7 C0.67 4.69 0.34 2.38 0 0 Z " fill="#2F2E2F" transform="translate(555,352)"/>
</svg>
